<?xml version="1.0" standalone="no"?>
<!DOCTYPE svg PUBLIC "-//W3C//DTD SVG 20010904//EN"
 "http://www.w3.org/TR/2001/REC-SVG-20010904/DTD/svg10.dtd">
<svg version="1.0" xmlns="http://www.w3.org/2000/svg"
 width="918.000000pt" height="918.000000pt" viewBox="0 0 918.000000 918.000000"
 preserveAspectRatio="xMidYMid meet">
<metadata>
Created by potrace 1.14, written by Peter Selinger 2001-2017
</metadata>
<g transform="translate(0.000000,918.000000) scale(0.100000,-0.100000)"
fill="#000000" stroke="none">
<path d="M0 4590 l0 -4590 4590 0 4590 0 0 4590 0 4590 -4590 0 -4590 0 0
-4590z m6248 2128 c44 -67 80 -144 62 -133 -5 3 -34 43 -63 88 -71 109 -70
107 -54 107 7 0 32 -28 55 -62z m153 -271 c37 -56 86 -136 109 -177 24 -41 57
-95 75 -120 57 -81 87 -140 81 -157 -6 -14 -9 -14 -29 5 -12 12 -38 52 -57 89
-29 58 -85 148 -157 253 -71 105 -103 161 -103 184 0 14 3 26 8 26 4 -1 37
-47 73 -103z m-1541 -99 c0 -13 -5 -30 -10 -38 -7 -11 -10 -5 -10 23 0 20 5
37 10 37 6 0 10 -10 10 -22z m1908 -474 c-10 -10 -28 6 -28 24 0 15 1 15 17
-1 9 -9 14 -19 11 -23z m-1218 -46 c35 -63 36 -68 10 -68 -24 0 -46 33 -55 83
-10 54 9 47 45 -15z m1150 -38 c0 -48 -16 -53 -23 -7 -5 34 -1 47 14 47 5 0 9
-18 9 -40z m-1929 -12 c-3 -21 -6 -26 -9 -15 -3 17 3 47 11 47 2 0 1 -15 -2
-32z m872 -118 c27 -21 44 -67 29 -82 -13 -13 -83 68 -76 87 8 20 16 19 47 -5z
m57 -147 c0 -13 -3 -13 -15 -3 -8 7 -12 16 -9 21 8 13 24 1 24 -18z m152 -26
c12 -19 9 -26 -14 -32 -35 -9 -102 8 -106 27 -5 28 102 33 120 5z m-4532 -169
c99 -50 108 -195 17 -262 -24 -18 -46 -21 -143 -25 l-114 -3 0 -109 0 -109
-25 0 -25 0 0 265 0 265 123 0 c107 0 128 -3 167 -22z m453 8 c18 -7 43 -26
57 -41 22 -23 25 -36 25 -95 0 -76 -18 -106 -76 -131 -30 -12 -30 -12 -11 -33
11 -12 43 -65 72 -118 l52 -98 -29 0 c-25 0 -33 9 -78 96 -27 52 -58 103 -69
112 -13 12 -41 18 -97 21 l-79 3 0 -116 0 -116 -25 0 -25 0 0 265 0 265 125 0
c84 0 136 -5 158 -14z m526 -12 c87 -44 122 -114 123 -246 0 -146 -69 -239
-195 -262 -21 -4 -63 -2 -94 4 -73 16 -142 80 -164 155 -45 158 16 321 136
363 57 20 137 14 194 -14z m311 -193 c0 -210 -1 -219 -23 -252 -28 -41 -60
-59 -109 -59 -31 0 -38 4 -38 19 0 15 10 21 39 26 74 12 76 19 79 266 l3 219
25 0 24 0 0 -219z m460 199 c0 -19 -7 -20 -140 -20 l-140 0 0 -100 0 -100 130
0 c123 0 130 -1 130 -20 0 -19 -7 -20 -130 -20 l-130 0 0 -105 0 -105 140 0
c133 0 140 -1 140 -20 0 -19 -7 -20 -165 -20 l-165 0 0 265 0 265 165 0 c158
0 165 -1 165 -20z m440 -11 c47 -26 54 -36 41 -57 -7 -11 -17 -8 -50 14 -49
32 -129 43 -184 25 -20 -7 -49 -28 -66 -46 -83 -95 -64 -314 32 -374 54 -33
152 -32 213 4 37 22 48 25 55 14 14 -22 6 -32 -46 -59 -64 -33 -170 -34 -230
-3 -102 54 -151 173 -126 309 16 85 55 142 121 177 49 26 62 28 126 25 50 -4
84 -12 114 -29z m520 11 c0 -19 -7 -20 -99 -20 l-99 0 2 -67 c0 -38 0 -148 -1
-245 l-3 -178 -25 0 -25 0 0 245 0 245 -95 0 c-88 0 -95 1 -95 20 0 19 7 20
220 20 213 0 220 -1 220 -20z m1070 -172 c0 -59 -4 -109 -9 -112 -17 -11 -29
169 -14 222 12 47 23 -3 23 -110z m896 3 c4 -20 20 -63 35 -97 33 -71 37 -97
12 -92 -11 2 -22 21 -31 53 -8 28 -28 69 -44 93 -24 34 -35 42 -60 42 l-31 0
39 34 c36 31 40 33 56 19 10 -9 21 -32 24 -52z m854 -9 c0 -17 -28 -50 -57
-66 -10 -6 -11 -1 -2 21 20 52 59 82 59 45z m431 -54 c22 -28 38 -53 35 -55
-13 -13 -48 13 -70 54 -46 82 -29 82 35 1z m290 -13 c0 -5 -9 -11 -21 -13 -20
-3 -27 8 -13 22 10 9 34 3 34 -9z m-2395 -276 c4 -29 3 -49 -3 -49 -12 0 -33
90 -32 138 l0 37 14 -38 c8 -21 17 -61 21 -88z m944 -115 c0 -8 -4 -12 -10 -9
-5 3 -10 10 -10 16 0 5 5 9 10 9 6 0 10 -7 10 -16z m7 -46 c-3 -8 -6 -5 -6 6
-1 11 2 17 5 13 3 -3 4 -12 1 -19z m-901 -65 c-10 -91 -18 -122 -37 -139 -17
-16 -19 -16 -25 0 -4 9 1 43 11 74 9 31 19 69 22 85 3 15 12 27 20 27 12 0 14
-10 9 -47z m-3865 -257 c54 -103 100 -190 102 -193 3 -2 50 83 104 189 78 151
105 194 121 196 l22 3 0 -265 0 -266 -25 0 -25 0 -2 206 -3 205 -85 -165
c-104 -202 -107 -203 -168 -83 -23 45 -61 119 -85 165 l-44 82 -6 -106 c-4
-59 -7 -151 -7 -206 0 -91 -1 -98 -20 -98 -19 0 -20 7 -20 266 0 265 0 265 21
262 17 -2 44 -46 120 -192z m808 168 c87 -44 122 -114 123 -246 0 -146 -69
-239 -195 -262 -21 -4 -63 -2 -94 4 -73 16 -142 80 -164 155 -45 158 16 321
136 363 57 20 137 14 194 -14z m548 0 c88 -65 81 -202 -13 -250 -36 -18 -39
-22 -25 -31 10 -6 42 -59 73 -117 l55 -106 -27 0 c-24 0 -33 11 -81 101 -63
117 -79 129 -174 129 l-65 0 0 -115 0 -115 -25 0 -25 0 0 266 0 266 139 -4
c122 -3 143 -6 168 -24z m466 15 c48 -13 102 -61 129 -113 29 -57 36 -174 14
-250 -34 -115 -145 -181 -265 -157 -115 23 -178 102 -188 234 -16 209 124 338
310 286z m557 -15 c42 -24 59 -49 44 -64 -8 -8 -22 -4 -49 14 -105 71 -245 32
-245 -69 0 -59 26 -80 135 -106 139 -33 174 -58 182 -131 6 -54 -24 -102 -82
-132 -78 -41 -271 -15 -291 39 -13 32 12 36 60 9 55 -31 150 -38 204 -15 62
26 79 113 29 146 -12 8 -62 23 -110 35 -144 33 -179 61 -179 144 0 60 30 108
85 136 53 27 166 24 217 -6z m3671 -7 c-8 -8 -11 -7 -11 4 0 20 13 34 18 19 3
-7 -1 -17 -7 -23z m-602 -79 c-12 -24 -36 -65 -54 -93 -37 -58 -168 -266 -234
-373 -25 -41 -57 -90 -70 -110 -33 -50 -96 -165 -127 -232 -14 -30 -35 -73
-46 -95 -31 -64 -98 -244 -120 -325 -13 -47 -22 -115 -24 -180 -5 -124 -7
-143 -22 -148 -35 -11 -42 141 -8 192 10 15 12 27 6 31 -22 13 -6 78 63 265
77 206 179 420 228 477 15 17 30 42 34 54 4 13 36 66 70 119 123 190 155 240
155 245 0 11 124 190 139 202 29 22 32 14 10 -29z m531 -9 c0 -19 -113 -124
-118 -110 -3 8 20 37 49 67 55 54 69 63 69 43z m-2147 -41 c12 -7 -10 -88 -25
-88 -13 0 -14 89 -1 120 5 12 7 11 11 -5 2 -11 9 -23 15 -27z m-4 -258 c-5
-74 -11 -198 -13 -275 -4 -138 -10 -175 -27 -175 -10 0 -10 180 0 225 4 17 3
37 -3 46 -6 11 -3 53 8 125 10 60 20 131 23 157 3 27 8 45 13 40 4 -4 3 -69
-1 -143z m-499 100 c0 -22 -4 -40 -10 -40 -5 0 -10 18 -10 40 0 22 5 40 10 40
6 0 10 -18 10 -40z m376 1 c-9 -9 -23 -41 -32 -71 -21 -65 -34 -84 -34 -48 0
43 55 152 71 142 7 -4 5 -12 -5 -23z m-516 -235 c0 -5 -7 -3 -15 4 -8 7 -15
20 -15 28 0 13 3 12 15 -4 8 -10 15 -23 15 -28z m2695 -275 c-21 -42 -25 -39
-13 12 15 65 21 76 26 45 2 -15 -4 -40 -13 -57z m-2582 36 c4 3 7 -1 7 -10 0
-20 -26 -12 -34 10 -5 12 -4 13 7 5 8 -7 17 -9 20 -5z m506 -279 l-2 -73 -8
64 c-7 58 -6 81 7 81 2 0 3 -33 3 -72z m-479 -30 c0 -61 -17 -52 -19 10 -1 41
2 53 9 42 5 -8 10 -32 10 -52z m103 -176 c10 -10 14 -22 10 -25 -7 -8 -43 21
-43 35 0 14 16 9 33 -10z m41 -48 c16 -6 23 -64 8 -64 -15 0 -32 24 -32 47 0
25 1 26 24 17z m495 -291 c18 -74 19 -83 11 -83 -13 0 -20 14 -34 70 -11 41
-11 50 0 50 7 0 17 -17 23 -37z m-589 -15 c0 -6 8 -20 18 -31 17 -20 17 -20
-10 -2 -27 17 -38 45 -18 45 6 0 10 -5 10 -12z m1360 -89 c0 -11 7 -34 16 -51
12 -22 15 -47 11 -87 -8 -92 54 -315 160 -571 47 -113 80 -179 101 -203 24
-27 5 -33 -24 -6 -32 30 -69 102 -124 244 -24 61 -49 119 -57 131 -7 11 -20
45 -29 75 -9 30 -20 59 -26 66 -5 7 -16 36 -24 65 -18 64 -30 373 -14 363 5
-3 10 -15 10 -26z m-1240 -124 c14 -19 14 -19 -2 -6 -10 7 -18 18 -18 24 0 6
1 8 3 6 1 -2 9 -13 17 -24z m1993 -145 c3 -11 1 -23 -4 -26 -5 -3 -9 -1 -9 5
0 5 -3 16 -6 25 -3 9 -2 16 4 16 5 0 12 -9 15 -20z m288 -366 c9 -10 39 -40
67 -65 47 -42 52 -50 52 -89 l0 -43 -21 19 c-12 10 -28 32 -37 49 -18 36 -65
96 -108 139 -41 40 -66 81 -57 90 7 6 55 -40 104 -100z m-771 -500 c0 -80 -15
-91 -24 -16 -3 31 -9 73 -12 92 l-5 35 20 -24 c17 -18 21 -37 21 -87z m846
-56 c-1 -7 -12 -33 -23 -58 -11 -25 -23 -52 -26 -60 -3 -10 -6 -7 -6 8 -1 27
38 122 49 122 5 0 7 -6 6 -12z m-832 -133 c-14 -57 -41 -7 -29 53 l8 37 13
-33 c8 -18 11 -44 8 -57z m6 -137 c0 -10 18 -96 39 -191 48 -210 48 -211 36
-215 -12 -4 -38 74 -55 163 -7 39 -21 104 -31 147 -11 42 -19 94 -19 115 1 36
2 37 15 19 8 -11 15 -28 15 -38z m110 -453 c19 -49 22 -75 11 -75 -6 0 -11 9
-11 19 0 11 -4 23 -10 26 -10 6 -14 55 -5 55 3 0 10 -11 15 -25z m147 -590 c0
-8 -4 -12 -9 -9 -5 3 -6 10 -3 15 9 13 12 11 12 -6z"/>
<path d="M1080 5185 l0 -117 105 4 c99 3 106 5 132 31 24 23 28 36 28 82 0 46
-4 59 -28 82 -26 26 -33 28 -132 31 l-105 4 0 -117z"/>
<path d="M1540 5190 l0 -110 98 0 c78 0 103 4 129 20 37 22 51 71 37 129 -13
54 -55 71 -171 71 l-93 0 0 -110z"/>
<path d="M2115 5286 c-40 -17 -82 -67 -95 -114 -5 -20 -10 -69 -10 -108 0 -57
5 -81 28 -125 35 -68 74 -92 152 -92 76 0 120 27 154 95 45 90 31 243 -27 307
-45 49 -137 66 -202 37z"/>
<path d="M1985 4456 c-40 -17 -82 -67 -95 -114 -5 -20 -10 -69 -10 -108 0 -57
5 -81 28 -125 35 -68 74 -92 152 -92 76 0 120 27 154 95 45 90 31 243 -27 307
-45 49 -137 66 -202 37z"/>
<path d="M2460 4360 l0 -112 105 4 c99 3 106 5 132 31 23 23 28 36 28 77 0 41
-5 54 -28 77 -26 26 -33 28 -132 31 l-105 4 0 -112z"/>
<path d="M3016 4447 c-61 -34 -90 -98 -90 -201 -1 -130 46 -205 143 -227 132
-30 232 83 218 248 -10 129 -76 203 -182 203 -33 0 -63 -8 -89 -23z"/>
</g>
</svg>
